<?xml version="1.0" encoding="UTF-8"?>
<svg width="395px" height="23px" viewBox="0 0 395 23" version="1.1" xmlns="http://www.w3.org/2000/svg" xmlns:xlink="http://www.w3.org/1999/xlink">
    <!-- Generator: Sketch 52.5 (67469) - http://www.bohemiancoding.com/sketch -->
    <title>Group 8</title>
    <desc>Created with Sketch.</desc>
    <defs>
        <polygon id="path-1" points="0.0335694051 0.461095238 94.5431941 0.461095238 94.5431941 22.9671429 0.0335694051 22.9671429"></polygon>
    </defs>
    <g id="Style-Guide-Elements" stroke="none" stroke-width="1" fill="none" fill-rule="evenodd">
        <g id="Internal-Nav-/-Pre-sticky-4" transform="translate(-523.000000, -18.000000)">
            <g id="Group-3">
                <g id="Group-8" transform="translate(523.000000, 18.000000)">
                    <g id="Group-6">
                        <mask id="mask-2" fill="white">
                            <use xlink:href="#path-1"></use>
                        </mask>
                        <g id="Clip-2"></g>
                        <path d="M0,11.8296667 C0,5.71769048 4.83399433,0.493952381 12.4201204,0.493952381 C15.3070892,0.493952381 18.0597805,1.1182381 19.1675708,1.41395238 L19.1675708,5.71769048 L18.9661544,5.71769048 C17.4555312,3.8782381 14.9048159,2.00538095 11.9501487,2.00538095 C7.65382436,2.00538095 4.39759207,6.11252381 4.39759207,11.4348333 C4.39759207,17.5134048 8.19093484,21.4562619 12.4542493,21.4562619 C16.0791856,21.4562619 18.4290439,18.7619762 19.4025567,17.5134048 L19.6039731,17.5134048 L19.6039731,21.5542857 C18.5297521,22.0476905 15.8777691,22.9671429 12.3199717,22.9671429 C5.37110482,22.9671429 0,18.6634048 0,11.8296667" id="Fill-1" fill="#FFFFFF" mask="url(#mask-2)"></path>
                        <path d="M35.4453754,21.4562619 C39.1380099,21.4562619 42.461381,17.7105476 42.461381,11.7634048 C42.461381,5.75109524 39.0367422,1.97252381 35.3782365,1.97252381 C31.7191714,1.97252381 28.4299292,5.78395238 28.4299292,11.7634048 C28.4299292,17.7105476 31.7868697,21.4562619 35.4453754,21.4562619 Z M35.3782365,0.461095238 C41.6551558,0.461095238 46.8248442,4.86395238 46.8248442,11.4676905 C46.8248442,18.2034048 41.4873088,23 35.4789448,23 C29.369313,23 24.0323371,18.6305476 24.0323371,12.0262619 C24.0323371,5.35680952 29.2355949,0.461095238 35.3782365,0.461095238 Z" id="Fill-3" fill="#FFFFFF" mask="url(#mask-2)"></path>
                        <polyline id="Fill-4" fill="#FFFFFF" mask="url(#mask-2)" points="67.9567847 16.6262619 68.1582011 16.6262619 68.1582011 22.6057143 51.2739093 22.6057143 51.2739093 22.409119 53.5566289 20.6348333 53.5566289 2.82680952 51.2739093 1.05252381 51.2739093 0.855380952 59.8329887 0.855380952 59.8329887 1.05252381 57.5508286 2.82680952 57.5508286 21.1276905 64.5662748 21.1276905 67.9567847 16.6262619"></polyline>
                        <path d="M84.640779,22.9671429 C77.4239164,22.9671429 72.3213669,18.3342857 72.3213669,11.8296667 C72.3213669,5.78395238 77.0876629,0.493952381 84.7414873,0.493952381 C87.8970113,0.493952381 90.851119,1.15164286 91.9253399,1.41395238 L91.9253399,5.65197619 L91.723364,5.65197619 C90.0790227,3.77966667 87.6620255,2.00538095 84.4057932,2.00538095 C79.9416218,2.00538095 76.6853895,5.94769048 76.6853895,11.4019762 C76.6853895,17.1519762 80.3444547,21.4228571 85.0436119,21.4228571 C86.6549433,21.4228571 88.0642989,20.9628571 88.8369547,20.4371429 L88.8369547,13.2748333 L86.1178329,11.5005476 L86.1178329,11.3039524 L94.5431941,11.3039524 L94.5431941,11.5005476 L92.7304462,13.2748333 L92.7304462,21.2262619 C91.0519759,21.6534048 88.53483,22.9671429 84.640779,22.9671429" id="Fill-5" fill="#FFFFFF" mask="url(#mask-2)"></path>
                    </g>
                    <path d="M104.01648,13.1105476 L109.354016,13.1105476 L106.568314,6.67109524 L104.01648,13.1105476 Z M103.47937,22.409119 L103.47937,22.6057143 L97.3031586,22.6057143 L97.3031586,22.409119 L99.2501841,20.6348333 L107.306282,0.493952381 L108.011239,0.493952381 L116.738725,20.6348333 L118.685751,22.409119 L118.685751,22.6057143 L110.26039,22.6057143 L110.26039,22.409119 L112.576678,20.6348333 L109.958265,14.5234048 L103.47937,14.5234048 L101.095942,20.569119 L103.47937,22.409119 Z" id="Fill-7" fill="#FFFFFF"></path>
                    <polyline id="Fill-8" fill="#FFFFFF" points="139.697401 0.855380952 139.697401 5.61966667 139.462415 5.61966667 136.675595 2.33395238 131.741452 2.33395238 131.741452 20.6019762 134.192018 22.409119 134.192018 22.6057143 125.228987 22.6057143 125.228987 22.409119 127.713123 20.6019762 127.713123 2.33395238 122.745411 2.33395238 119.99272 5.61966667 119.757734 5.61966667 119.757734 0.855380952 139.697401 0.855380952"></polyline>
                    <polyline id="Fill-9" fill="#FFFFFF" points="144.235984 22.6057143 144.235984 22.409119 146.518144 20.6348333 146.518144 2.82680952 144.235984 1.05252381 144.235984 0.855380952 159.442365 0.855380952 159.442365 5.19197619 159.24039 5.19197619 156.756813 2.30109524 150.513463 2.30109524 150.513463 10.3834048 156.991799 10.3834048 158.737408 8.08395238 158.905255 8.08395238 158.905255 14.0962619 158.737408 14.0962619 156.991799 11.8296667 150.513463 11.8296667 150.513463 21.1276905 157.428201 21.1276905 160.012486 17.5134048 160.213902 17.5134048 160.213902 22.6057143 144.235984 22.6057143"></polyline>
                    <path d="M197.799327,14.8525238 C197.799327,18.8276905 194.84466,22.9348333 188.970574,22.9348333 C182.793803,22.9348333 179.303144,19.7805476 179.303144,14.9176905 L179.303144,2.82680952 L176.986856,1.05252381 L176.986856,0.855380952 L185.78148,0.855380952 L185.78148,1.05252381 L183.297904,2.82680952 L183.297904,14.7868095 C183.297904,18.499119 185.580623,20.6676905 189.809809,20.6676905 C193.67029,20.6676905 195.95301,18.0719762 195.95301,14.7534048 L195.95301,2.82680952 L193.468314,1.05252381 L193.468314,0.855380952 L200.047918,0.855380952 L200.047918,1.05252381 L197.799327,2.82680952 L197.799327,14.8525238" id="Fill-10" fill="#FFFFFF"></path>
                    <path d="M204.255283,22.6062619 L204.255283,22.409119 L206.671721,20.5362619 L206.671721,3.61538095 C205.698768,2.59680952 204.389561,1.31538095 204.053307,1.05252381 L204.053307,0.855380952 L209.55869,0.855380952 L223.825127,16.6262619 L223.825127,2.92538095 L221.039426,1.05252381 L221.039426,0.855380952 L228.122011,0.855380952 L228.122011,1.05252381 L225.671445,2.92538095 L225.671445,22.6062619 L224.094242,22.6062619 L208.551608,5.61966667 L208.551608,20.5362619 L211.439136,22.409119 L211.439136,22.6062619 L204.255283,22.6062619" id="Fill-11" fill="#FFFFFF"></path>
                    <polyline id="Fill-12" fill="#FFFFFF" points="233.574242 22.6062619 233.574242 22.409119 235.856962 20.635381 235.856962 2.82680952 233.574242 1.05252381 233.574242 0.855380952 242.133881 0.855380952 242.133881 1.05252381 239.851721 2.82680952 239.851721 20.635381 242.133881 22.409119 242.133881 22.6062619 233.574242 22.6062619"></polyline>
                    <polyline id="Fill-13" fill="#FFFFFF" points="261.523569 1.05252381 261.523569 0.855380952 267.733909 0.855380952 267.733909 1.05252381 265.786884 2.82680952 257.865064 22.9348333 257.159547 22.9348333 248.46563 2.82680952 246.519164 1.05252381 246.519164 0.855380952 255.213081 0.855380952 255.213081 1.05252381 252.863222 2.82680952 258.570021 16.6262619 263.906997 2.89252381 261.523569 1.05252381"></polyline>
                    <polyline id="Fill-14" fill="#FFFFFF" points="271.383463 22.6062619 271.383463 22.409119 273.666183 20.635381 273.666183 2.82680952 271.383463 1.05252381 271.383463 0.855380952 286.589844 0.855380952 286.589844 5.19252381 286.388428 5.19252381 283.904292 2.30109524 277.660942 2.30109524 277.660942 10.3834048 284.139278 10.3834048 285.884887 8.08395238 286.052734 8.08395238 286.052734 14.0962619 285.884887 14.0962619 284.139278 11.8296667 277.660942 11.8296667 277.660942 21.1276905 284.57568 21.1276905 287.159965 17.5134048 287.361941 17.5134048 287.361941 22.6062619 271.383463 22.6062619"></polyline>
                    <path d="M300.269936,2.23592857 L300.269936,10.6139524 L303.358322,10.6139524 C304.935524,10.6139524 306.413137,8.7082381 306.413137,6.47395238 C306.413137,3.4182381 304.331275,2.23592857 302.116254,2.23592857 L300.269936,2.23592857 Z M293.992458,22.6062619 L293.992458,22.409119 L296.275177,20.635381 L296.275177,2.82680952 L293.992458,1.05252381 L293.992458,0.855380952 L302.854221,0.855380952 C307.318952,0.855380952 310.23949,2.4982381 310.23949,5.65252381 C310.23949,8.34680952 308.091608,10.1534048 306.31187,11.0082381 L310.105212,17.3819762 C312.119377,20.7662619 313.965694,21.949119 314.670092,22.409119 L314.670092,22.6062619 C314.402096,22.6719762 313.428584,22.8362619 312.555779,22.8362619 C309.735949,22.8362619 308.258895,21.9162619 306.647564,19.0905476 L302.619235,11.9282381 L300.269936,11.9282381 L300.269936,20.635381 L302.821211,22.409119 L302.821211,22.6062619 L293.992458,22.6062619 Z" id="Fill-15" fill="#FFFFFF"></path>
                    <path d="M330.350921,1.08538095 L330.350921,5.0282381 L330.149504,5.0282381 C328.873867,3.31966667 327.396813,1.93966667 325.483357,1.93966667 C323.905595,1.93966667 322.596388,2.9582381 322.596388,4.60109524 C322.596388,6.70395238 323.972734,7.68966667 326.557578,9.52966667 C329.746671,11.8296667 331.894554,13.5382381 331.894554,16.7248333 C331.894554,20.2076905 329.175992,22.9348333 324.677691,22.9348333 C321.89199,22.9348333 319.843697,22.2125238 318.736466,21.6534048 C318.568619,20.5034048 318.400212,17.5134048 318.467351,15.509119 L318.736466,15.509119 C319.776558,18.105381 321.32131,21.3576905 324.677691,21.3576905 C326.692415,21.3576905 328.13534,19.879119 328.13534,17.9410952 C328.13534,15.7068095 326.927401,14.5568095 324.17471,12.7168095 C320.817769,10.4162619 319.105729,8.57680952 319.105729,5.84966667 C319.105729,2.46538095 321.959129,0.493952381 325.85318,0.493952381 C328.168909,0.493952381 329.81381,0.921095238 330.350921,1.08538095" id="Fill-16" fill="#FFFFFF"></path>
                    <polyline id="Fill-17" fill="#FFFFFF" points="338.418208 22.6062619 338.418208 22.409119 340.700368 20.635381 340.700368 2.82680952 338.418208 1.05252381 338.418208 0.855380952 346.977288 0.855380952 346.977288 1.05252381 344.695127 2.82680952 344.695127 20.635381 346.977288 22.409119 346.977288 22.6062619 338.418208 22.6062619"></polyline>
                    <polyline id="Fill-18" fill="#FFFFFF" points="371.754865 0.855380952 371.754865 5.61966667 371.51932 5.61966667 368.733059 2.33395238 363.798916 2.33395238 363.798916 20.6019762 366.249483 22.409119 366.249483 22.6062619 357.286452 22.6062619 357.286452 22.409119 359.770588 20.6019762 359.770588 2.33395238 354.802875 2.33395238 352.050184 5.61966667 351.815198 5.61966667 351.815198 0.855380952 371.754865 0.855380952"></polyline>
                    <polyline id="Fill-19" fill="#FFFFFF" points="388.757769 1.05252381 388.757769 0.855380952 394.93398 0.855380952 394.93398 1.05252381 392.953385 2.82680952 387.112868 11.7305476 387.112868 20.6019762 389.395588 22.409119 389.395588 22.6062619 380.835949 22.6062619 380.835949 22.409119 383.118109 20.6019762 383.118109 12.355381 376.740482 2.82680952 374.793456 1.05252381 374.793456 0.855380952 383.554511 0.855380952 383.554511 1.05252381 381.238782 2.82680952 386.172925 10.3510952 391.039929 2.89252381 388.757769 1.05252381"></polyline>
                </g>
            </g>
        </g>
    </g>
</svg>